<svg width="20" height="20" viewBox="0 0 20 20" fill="none" xmlns="http://www.w3.org/2000/svg">
<path fill-rule="evenodd" clip-rule="evenodd" d="M4.99994 2.91602C5.23006 2.91602 5.41661 3.10256 5.41661 3.33268V6.24934H6.66602C6.89613 6.24934 7.08268 6.43589 7.08268 6.66601V9.99934C7.08268 10.2295 6.89613 10.416 6.66602 10.416H5.41661V16.666C5.41661 16.8961 5.23006 17.0827 4.99994 17.0827C4.76982 17.0827 4.58327 16.8961 4.58327 16.666V10.416H3.33268C3.10256 10.416 2.91602 10.2295 2.91602 9.99934V6.66601C2.91602 6.43589 3.10256 6.24934 3.33268 6.24934H4.58327V3.33268C4.58327 3.10256 4.76982 2.91602 4.99994 2.91602ZM5.00279 9.58267L4.99994 9.58266L4.99709 9.58267H3.74935V7.08267H4.99709L4.99994 7.08268L5.00279 7.08267H6.24935V9.58267H5.00279Z" fill="#181513"/>
<path fill-rule="evenodd" clip-rule="evenodd" d="M7.91602 11.666C7.91602 11.4359 8.10256 11.2493 8.33268 11.2493H9.58327V3.33268C9.58327 3.10256 9.76982 2.91602 9.99994 2.91602C10.2301 2.91602 10.4166 3.10256 10.4166 3.33268V11.2493H11.666C11.8961 11.2493 12.0827 11.4359 12.0827 11.666V14.9993C12.0827 15.2295 11.8961 15.416 11.666 15.416H10.4166V16.666C10.4166 16.8961 10.2301 17.0827 9.99994 17.0827C9.76982 17.0827 9.58327 16.8961 9.58327 16.666V15.416H8.33268C8.10256 15.416 7.91602 15.2295 7.91602 14.9993V11.666ZM11.2493 14.5827H10.0028L9.99994 14.5827L9.99709 14.5827H8.74935V12.0827H9.99722L9.99994 12.0827L10.0027 12.0827H11.2493V14.5827Z" fill="#181513"/>
<path fill-rule="evenodd" clip-rule="evenodd" d="M13.3327 3.74934C13.1026 3.74934 12.916 3.93589 12.916 4.16601V7.49934C12.916 7.72946 13.1026 7.91601 13.3327 7.91601H14.5833V16.666C14.5833 16.8961 14.7698 17.0827 14.9999 17.0827C15.2301 17.0827 15.4166 16.8961 15.4166 16.666V7.91601H16.666C16.8961 7.91601 17.0827 7.72946 17.0827 7.49934V4.16601C17.0827 3.93589 16.8961 3.74934 16.666 3.74934H15.4166V3.33268C15.4166 3.10256 15.2301 2.91602 14.9999 2.91602C14.7698 2.91602 14.5833 3.10256 14.5833 3.33268V3.74934H13.3327ZM15.0028 7.08267H16.2493V4.58267H15.0027L14.9999 4.58268L14.9971 4.58267H13.7493V7.08267H14.9971C14.998 7.08267 14.999 7.08266 14.9999 7.08266C15.0009 7.08266 15.0018 7.08267 15.0028 7.08267Z" fill="#181513"/>
</svg>
