<svg width="16" height="16" viewBox="0 0 16 16" fill="none" xmlns="http://www.w3.org/2000/svg">
<path fill-rule="evenodd" clip-rule="evenodd" d="M4.70209 1.92395C5.3249 1.66598 5.99242 1.5332 6.66654 1.5332C7.34066 1.5332 8.00817 1.66598 8.63098 1.92395C9.25378 2.18193 9.81968 2.56005 10.2964 3.03672C10.773 3.5134 11.1511 4.07929 11.4091 4.70209C11.6671 5.3249 11.7999 5.99242 11.7999 6.66654C11.7999 7.34066 11.6671 8.00817 11.4091 8.63098C11.2109 9.1096 10.9417 9.5546 10.6113 9.95134L14.6598 13.9999L13.9999 14.6598L9.95134 10.6113C9.5546 10.9417 9.1096 11.2109 8.63098 11.4091C8.00817 11.6671 7.34066 11.7999 6.66654 11.7999C5.99242 11.7999 5.3249 11.6671 4.70209 11.4091C4.07929 11.1511 3.5134 10.773 3.03672 10.2964C2.56005 9.81968 2.18193 9.25378 1.92395 8.63098C1.66598 8.00817 1.5332 7.34066 1.5332 6.66654C1.5332 5.99242 1.66598 5.3249 1.92395 4.70209C2.18193 4.07929 2.56005 3.5134 3.03672 3.03672C3.5134 2.56005 4.07929 2.18193 4.70209 1.92395ZM6.66654 2.46654C6.11498 2.46654 5.56883 2.57517 5.05927 2.78624C4.5497 2.99731 4.08669 3.30668 3.69669 3.69669C3.30668 4.08669 2.99731 4.5497 2.78624 5.05927C2.57517 5.56883 2.46654 6.11498 2.46654 6.66654C2.46654 7.21809 2.57517 7.76424 2.78624 8.27381C2.99731 8.78337 3.30668 9.24638 3.69669 9.63638C4.08669 10.0264 4.5497 10.3358 5.05927 10.5468C5.56883 10.7579 6.11498 10.8665 6.66654 10.8665C7.21809 10.8665 7.76424 10.7579 8.27381 10.5468C8.78337 10.3358 9.24638 10.0264 9.63638 9.63638C10.0264 9.24638 10.3358 8.78337 10.5468 8.27381C10.7579 7.76424 10.8665 7.21809 10.8665 6.66654C10.8665 6.11498 10.7579 5.56883 10.5468 5.05927C10.3358 4.5497 10.0264 4.08669 9.63638 3.69669C9.24638 3.30668 8.78337 2.99731 8.27381 2.78624C7.76424 2.57517 7.21809 2.46654 6.66654 2.46654Z" fill="#181513"/>
</svg>
